<svg xmlns="http://www.w3.org/2000/svg" fill="none" viewBox="37.99 61.24 196.89 64.57">
<path fill-rule="evenodd" clip-rule="evenodd" d="M71.9944 61.2424H73.1541L75.3691 64.7335H77.2216V65.7893H76.0396L77.8846 68.6952C79.0219 68.7649 80.0997 68.8396 81.0681 68.9068C81.9422 68.9666 85.6397 69.1782 85.9179 70.1618C86.2034 71.1678 82.1285 71.2574 77.5444 70.9412L75.4138 73.6429H76.8615V74.6987H74.5794L72.1484 77.7789H70.9887L73.8965 70.6175C71.9745 70.4108 70.1394 70.1543 68.6743 69.8904L67.0851 71.9497H66.2805L66.9013 69.5169C66.2904 69.3625 65.8484 69.2106 65.6299 69.0662C66.062 68.9641 66.5214 68.8794 67.0031 68.8097L66.3525 66.2524L67.3681 66.484L68.8556 68.6055C70.4225 68.486 72.121 68.4711 73.8146 68.5134L71.9944 61.2424Z" fill="#BC1819"/>
<path fill-rule="evenodd" clip-rule="evenodd" d="M46.2031 80.5653C52.4286 75.5254 58.9471 72.9084 66.9977 73.6554C68.6739 73.8098 71.7158 74.4323 71.7158 74.4323L72.4285 73.0329C72.4285 73.0329 58.2269 69.3302 46.2031 80.5653Z" fill="#BC1819"/>
<path fill-rule="evenodd" clip-rule="evenodd" d="M72.2573 64.2605V65.4856C72.2573 65.4856 66.4813 64.6315 61.0009 66.499C55.5204 68.3666 46.2455 74.5095 42.8385 85.6226C39.4315 96.7382 44.8301 107.478 44.8301 107.478C44.8301 107.478 44.9418 107.727 45.1728 108.16C43.9113 108.957 43.1986 109.455 43.1986 109.455C44.0801 109.323 44.9195 109.213 45.7191 109.124C45.9202 109.462 46.1611 109.843 46.4367 110.257C45.1132 110.326 43.7275 110.458 42.2699 110.663C41.4901 109.278 40.7874 107.807 40.1691 106.248C32.0886 85.8169 47.2562 63.0354 72.2573 64.2605ZM47.6734 111.972C50.9686 116.22 57.353 122.134 67.9713 123.464C84.9541 125.593 94.1222 111.474 94.1222 111.474C88.0532 122.607 74.8498 127.411 62.7863 125.341C54.46 123.912 47.3431 119.136 42.7243 111.444C44.105 111.562 45.801 111.733 47.6734 111.972Z" fill="#BC1819"/>
<path fill-rule="evenodd" clip-rule="evenodd" d="M44.4033 108.651C44.4033 108.651 58.1033 99.0938 71.925 96.4942C85.7466 93.8921 97.7754 95.1695 97.7754 95.1695C97.7754 95.1695 93.1119 98.1052 90.3629 100.984C87.614 103.862 85.5231 107.401 85.5231 107.401C85.5231 107.401 91.1427 105.837 95.615 106.619C100.087 107.401 101.972 110.321 101.972 110.321C101.972 110.321 97.2961 107.689 90.281 109.54C83.2659 111.39 73.3131 111.751 68.4733 109.98C63.6334 108.212 61.5823 107.43 59.9409 106.36C58.2995 105.289 57.562 104.714 57.562 104.714C57.927 106.753 59.6926 108.342 61.0062 109.355C61.0087 109.355 56.9685 106.773 44.4033 108.651ZM51.334 105.072C65.1631 99.1436 76.2905 96.6834 91.4804 97.2561L88.9549 100.877L93.0349 96.2327C93.0349 96.2352 70.8025 94.0714 51.334 105.072Z" fill="#083268"/>
<path fill-rule="evenodd" clip-rule="evenodd" d="M40.2881 110.976C40.2881 110.976 48.2742 110.71 56.2503 112.396C64.2264 114.081 72.9078 117.346 79.1481 117.346C85.3885 117.346 90.3376 114.492 91.1123 113.899C91.8871 113.309 94.122 111.474 94.122 111.474C94.122 111.474 87.9586 115.906 77.6905 114.35C63.8415 112.632 56.5657 107.739 40.2881 110.976Z" fill="#083268"/>
<path fill-rule="evenodd" clip-rule="evenodd" d="M50.5345 97.7241C54.4306 94.8008 59.8317 91.001 64.9893 92.3282C64.9893 92.3282 55.6499 95.4507 51.4036 99.2804C47.1573 103.113 45.9082 104.744 45.9082 104.744C45.9082 104.744 53.9961 98.8546 64.7509 96.631C75.5058 94.4074 77.2987 94.0762 77.2987 94.0762C77.2987 94.0762 74.9868 91.9472 73.0996 91.616C71.2123 91.2848 70.1271 91.8053 70.1271 91.8053C70.1271 91.8053 69.0892 89.1558 64.3735 89.3924C59.6603 89.6339 54.6864 92.3805 50.5345 97.7241Z" fill="#194B8D"/>
<path fill-rule="evenodd" clip-rule="evenodd" d="M112.033 91.1517H107.935L113.505 76.4387H117.708L123.279 91.1517H119.177L118.232 88.525H112.979L112.033 91.1517ZM113.924 85.7908H117.287L115.605 80.8516L113.924 85.7908ZM129.792 91.1517C128.852 91.2914 127.96 91.3612 127.111 91.3612C126.263 91.3612 125.554 91.0739 124.979 90.4991C124.404 89.9243 124.117 89.1615 124.117 88.2081V76.4387H127.794V87.6843C127.794 87.8938 127.863 88.0684 128.003 88.2108C128.143 88.3504 128.317 88.4202 128.53 88.4202H129.792V91.1517ZM136.939 91.1517C135.999 91.2914 135.107 91.3612 134.258 91.3612C133.41 91.3612 132.701 91.0739 132.126 90.4991C131.551 89.9243 131.264 89.1615 131.264 88.2081V76.4387H134.941V87.6843C134.941 87.8938 135.01 88.0684 135.15 88.2108C135.29 88.3504 135.464 88.4202 135.677 88.4202H136.939V91.1517ZM144.483 88.1033C148.321 88.3128 150.921 88.4176 152.28 88.4176C152.603 88.4176 152.858 88.3236 153.049 88.1329C153.237 87.9449 153.333 87.687 153.333 87.3647V85.4739H148.499C147.027 85.4739 145.958 85.1408 145.295 84.4748C144.628 83.8087 144.295 82.7397 144.295 81.2706V80.6394C144.295 79.1675 144.628 78.0986 145.295 77.4352C145.961 76.7691 147.03 76.4361 148.499 76.4361H155.877V79.3797H149.339C148.499 79.3797 148.077 79.8014 148.077 80.6394V81.0611C148.077 81.9017 148.499 82.3234 149.339 82.3234H153.124C154.496 82.3234 155.506 82.6457 156.151 83.2903C156.795 83.9349 157.118 84.9448 157.118 86.3172V87.3674C157.118 88.7399 156.795 89.7497 156.151 90.3943C155.506 91.0389 154.496 91.3612 153.124 91.3612C152.409 91.3612 151.652 91.3478 150.854 91.3183L148.92 91.235C147.492 91.1652 146.014 91.0658 144.486 90.9396V88.1033H144.483ZM163.104 82.4281C162.543 82.4281 162.264 82.7075 162.264 83.2688V84.4237H165.836V83.2688C165.836 82.7075 165.556 82.4281 164.995 82.4281H163.104ZM169.094 90.9396C166.389 91.2189 163.937 91.3612 161.737 91.3612C160.784 91.3612 160.021 91.0739 159.446 90.4991C158.871 89.9243 158.584 89.1615 158.584 88.2081V83.1641C158.584 82.1139 158.882 81.2894 159.478 80.6958C160.075 80.0995 160.897 79.8014 161.947 79.8014H166.15C167.2 79.8014 168.025 80.0995 168.618 80.6958C169.215 81.292 169.513 82.1139 169.513 83.1641V87.0532H162.261V87.8938C162.261 88.1033 162.331 88.2779 162.47 88.4202C162.61 88.5599 162.785 88.6297 162.997 88.6297C164.383 88.6297 166.416 88.525 169.091 88.3155V90.9396H169.094ZM177.817 83.0593C176.934 83.0593 176.023 83.2688 175.086 83.6905V91.1517H171.406V80.0109H174.664L174.874 81.378C176.08 80.3278 177.339 79.8014 178.658 79.8014H179.603V83.0593H177.817ZM188.536 80.0109H192.426L188.222 91.1491H184.019L179.813 80.0109H183.702L186.119 87.5769L188.536 80.0109ZM197.889 80.4326V91.1517H194.209V83.2715H192.632V80.4353H197.889V80.4326ZM194.209 76.2292H197.886V79.1729H194.209V76.2292ZM209.867 90.9396C207.246 91.2189 204.936 91.3612 202.933 91.3612C201.979 91.3612 201.216 91.0739 200.642 90.4991C200.067 89.9243 199.779 89.1615 199.779 88.2081V83.3736C199.779 82.3234 200.077 81.4989 200.674 80.9053C201.27 80.309 202.092 80.0109 203.142 80.0109H209.867V82.8471H204.297C203.736 82.8471 203.456 83.1265 203.456 83.6878V87.7864C203.456 87.9959 203.526 88.1705 203.666 88.3128C203.805 88.4525 203.98 88.5223 204.192 88.5223C205.452 88.5223 207.345 88.4176 209.867 88.2081V90.9396ZM215.859 82.4281C215.298 82.4281 215.019 82.7075 215.019 83.2688V84.4237H218.591V83.2688C218.591 82.7075 218.312 82.4281 217.75 82.4281H215.859ZM221.849 90.9396C219.144 91.2189 216.692 91.3612 214.492 91.3612C213.539 91.3612 212.776 91.0739 212.201 90.4991C211.627 89.9243 211.339 89.1615 211.339 88.2081V83.1641C211.339 82.1139 211.637 81.2894 212.234 80.6958C212.83 80.0995 213.652 79.8014 214.702 79.8014H218.905C219.955 79.8014 220.78 80.0995 221.373 80.6958C221.97 81.292 222.268 82.1139 222.268 83.1641V87.0532H215.016V87.8938C215.016 88.1033 215.086 88.2779 215.226 88.4202C215.365 88.5599 215.54 88.6297 215.752 88.6297C217.138 88.6297 219.171 88.525 221.846 88.3155V90.9396H221.849ZM223.74 88.2081C226.584 88.4176 228.827 88.5223 230.465 88.5223C230.675 88.5223 230.849 88.4525 230.991 88.3128C231.131 88.1732 231.201 87.9986 231.201 87.7864V87.0505H226.683C225.73 87.0505 224.967 86.7631 224.392 86.1883C223.818 85.6135 223.53 84.8508 223.53 83.8973V83.1614C223.53 82.2079 223.818 81.4451 224.392 80.8704C224.967 80.2956 225.73 80.0082 226.683 80.0082H233.83V82.7397H227.943C227.734 82.7397 227.559 82.8095 227.417 82.9492C227.277 83.0889 227.207 83.2634 227.207 83.4756C227.207 83.6851 227.277 83.8597 227.417 84.0021C227.556 84.1417 227.731 84.2115 227.943 84.2115H231.727C232.681 84.2115 233.444 84.4989 234.018 85.0737C234.593 85.6485 234.881 86.4112 234.881 87.3647V88.2054C234.881 89.1589 234.593 89.9216 234.018 90.4964C233.444 91.0712 232.681 91.3585 231.727 91.3585C229.248 91.3585 226.584 91.2189 223.74 90.9369V88.2081Z" fill="#BC1819"/>
<path fill-rule="evenodd" clip-rule="evenodd" d="M119.943 101.675L117.147 106.67H114.348L111.552 101.675V109.466H107.956V95.4812H111.751L115.748 102.873L119.744 95.4812H123.539V109.466H119.943V101.675ZM137.626 109.466H133.732L139.026 95.4812H143.022L148.316 109.466H144.422L143.522 106.969H138.526L137.626 109.466ZM139.426 104.371H142.622L141.024 99.6765L139.426 104.371ZM158.509 95.4812H166.899C168.299 95.4812 169.314 95.7981 169.945 96.4293C170.579 97.0632 170.893 98.0784 170.893 99.475V101.272C170.893 102.378 170.711 103.235 170.343 103.85C169.977 104.463 169.395 104.868 168.594 105.07L171.092 109.464H167.197L164.901 105.268H162.105V109.464H158.509V95.4812ZM167.3 99.4777C167.3 98.68 166.899 98.2798 166.102 98.2798H162.105V102.475H166.102C166.902 102.475 167.3 102.075 167.3 101.277V99.4777ZM188.681 109.466H181.489V106.67H183.286V98.2798H181.489V95.4812H188.681V98.2772H186.885V106.668H188.681V109.466ZM211.86 109.466H208.065L203.271 101.076V109.466H199.675V95.4812H203.47L208.264 103.872V95.4812H211.86V109.466ZM234.539 109.466H223.452V95.4812H234.539V98.2772H227.049V100.974H232.941V103.77H227.049V106.668H234.539V109.466Z" fill="#083268"/>
</svg>